<?xml version="1.0" encoding="utf-8"?><svg xml:space="preserve" viewBox="0 0 100 100" y="0" x="0" xmlns="http://www.w3.org/2000/svg" id="Layer_1" version="1.1" width="297px" height="297px" xmlns:xlink="http://www.w3.org/1999/xlink" style="width:100%;height:100%;background-size:initial;background-repeat-y:initial;background-repeat-x:initial;background-position-y:initial;background-position-x:initial;background-origin:initial;background-image:initial;background-color:rgb(255, 255, 255);background-clip:initial;background-attachment:initial;animation-play-state:paused" ><g class="ldl-scale" style="transform-origin:50% 50%;transform:rotate(0deg) scale(0.8, 0.8);animation-play-state:paused" ><circle fill="#323232" r="40" cy="50" cx="50" style="fill:rgb(32, 32, 34);animation-play-state:paused" ></circle>
<path fill="#fff" d="M57.488 27.916a1.419 1.419 0 0 0-1.007-.416H36.488a2.64 2.64 0 0 0-2.64 2.634v39.733a2.64 2.64 0 0 0 2.64 2.634h29.024a2.64 2.64 0 0 0 2.64-2.634v-29.88a3.46 3.46 0 0 0-1.026-2.468l-9.638-9.603zm-.542 2.235l8.602 8.602h-7.976a.627.627 0 0 1-.626-.626m9.472 31.739a.903.903 0 0 1-.906.899H36.488a.904.904 0 0 1-.906-.899V30.134c0-.496.407-.899.906-.899h18.723v8.893a2.363 2.363 0 0 0 2.361 2.361h8.845v29.377z" style="fill:rgb(255, 255, 255);animation-play-state:paused" ></path>
<metadata xmlns:d="https://loading.io/stock/" style="animation-play-state:paused" ><d:name style="animation-play-state:paused" >file</d:name>
<d:tags style="animation-play-state:paused" >file,paper,document,form</d:tags>
<d:license style="animation-play-state:paused" >by</d:license>
<d:slug style="animation-play-state:paused" >942mi0</d:slug></metadata></g><!-- generated by https://loading.io/ --></svg>
