<svg data-v-423bf9ae="" xmlns="http://www.w3.org/2000/svg" viewBox="0 0 196.25934836692983 60" class="font"><!----><!----><defs data-v-423bf9ae=""><linearGradient data-v-423bf9ae="" gradientTransform="rotate(25)" id="c18d9a13-9d24-428b-a816-27d1d4a4dada" x1="0%" y1="0%" x2="100%" y2="0%"><stop data-v-423bf9ae="" offset="0%" style="stop-color: rgb(87, 72, 81); stop-opacity: 1;"></stop><stop data-v-423bf9ae="" offset="100%" style="stop-color: rgb(149, 168, 177); stop-opacity: 1;"></stop></linearGradient></defs><g data-v-423bf9ae="" id="54024354-5bcb-4796-98dc-d22450540a21" fill="url(#c18d9a13-9d24-428b-a816-27d1d4a4dada)" transform="matrix(4.987531282777601,0,0,4.987531282777601,-4.189523927836547,-18.90274384830505)"><path d="M8.97 11.16C8.97 11.00 8.85 10.89 8.69 10.89L7.77 10.89L6.06 4.05L6.05 3.98C6.01 3.88 5.91 3.81 5.80 3.81L3.96 3.81C3.85 3.81 3.75 3.88 3.71 3.98L3.70 4.06L0.85 15.41C0.85 15.43 0.85 15.44 0.84 15.44L0.84 15.50C0.84 15.67 0.97 15.79 1.11 15.79L2.80 15.79C2.91 15.79 3.02 15.71 3.05 15.60C3.05 15.58 3.07 15.57 3.07 15.57L3.68 13.06L6.08 13.06L6.69 15.55L6.71 15.60C6.75 15.71 6.85 15.79 6.96 15.79L8.65 15.79C8.81 15.79 8.92 15.67 8.92 15.50L8.92 15.47L8.90 15.40L8.32 13.06L8.69 13.06C8.85 13.06 8.97 12.95 8.97 12.80ZM4.23 10.89L4.89 8.30L5.53 10.89ZM19.07 15.37L16.84 11.42L16.53 10.89L16.46 10.77C18.49 10.32 19.54 8.82 19.54 7.35C19.54 6.38 19.10 5.46 18.33 4.82C17.54 4.14 16.44 3.79 15.16 3.79L11.07 3.79C10.92 3.79 10.79 3.92 10.79 4.06L10.79 5.17L10.93 5.42L10.93 5.43L12.80 8.71L10.79 8.71L10.79 15.54C10.79 15.69 10.92 15.82 11.07 15.82L12.71 15.82C12.85 15.82 12.98 15.69 12.98 15.54L12.98 10.89L14.03 10.89L14.32 11.42L16.72 15.65L16.74 15.69C16.79 15.76 16.87 15.82 16.97 15.82L18.84 15.82C19.00 15.82 19.11 15.69 19.11 15.53C19.11 15.48 19.11 15.44 19.08 15.40ZM15.01 8.19L13.76 5.98L15.16 5.98C16.67 5.98 17.35 6.69 17.35 7.35C17.35 7.91 16.84 8.53 15.71 8.68C15.58 8.69 15.44 8.71 15.30 8.71ZM30.38 15.82L25.80 11.24L21.22 15.82L21.22 4.07C21.22 3.92 21.35 3.79 21.49 3.79L23.11 3.79C23.27 3.79 23.38 3.92 23.38 4.07L23.38 10.61L25.80 8.19L28.22 10.61L28.22 4.07C28.22 3.92 28.35 3.79 28.50 3.79L30.11 3.79C30.27 3.79 30.38 3.92 30.38 4.07ZM40.19 11.16C40.19 11.00 40.07 10.89 39.91 10.89L38.99 10.89L37.28 4.05L37.27 3.98C37.23 3.88 37.13 3.81 37.02 3.81L35.18 3.81C35.07 3.81 34.97 3.88 34.93 3.98L34.92 4.06L32.07 15.41C32.07 15.43 32.07 15.44 32.06 15.44L32.06 15.50C32.06 15.67 32.19 15.79 32.33 15.79L34.02 15.79C34.13 15.79 34.24 15.71 34.27 15.60C34.27 15.58 34.29 15.57 34.29 15.57L34.90 13.06L37.30 13.06L37.91 15.55L37.93 15.60C37.97 15.71 38.07 15.79 38.18 15.79L39.87 15.79C40.03 15.79 40.14 15.67 40.14 15.50L40.14 15.47L40.12 15.40L39.54 13.06L39.91 13.06C40.07 13.06 40.19 12.95 40.19 12.80ZM35.45 10.89L36.11 8.30L36.75 10.89Z"></path></g><!----><!----></svg>